#!OML:ASF X:\für Bonn\!DataBase\2005_08_10_Bjorn_Final\c3d\bjorn.ASF
:FULLY-SPECIFIED
:DEGREES
110
root -7.61268 18.559 -0.766011 398.79 95.3421 399.058
lowerback 3.55538 -0.0842087 -2.41463
upperback 15.2042 1.08381 -0.225411
thorax 14.6641 0.648412 1.29384
lowerneck 9.92875 -8.93597 -4.2822
upperneck -5.4486 -11.47 14.6418
head -2.10933 -6.24763 5.57202
rclavicle -5.56597e-015 -1.59028e-015
rhumerus -25.9698 -21.592 -81.8675
rradius 38.4231
rwrist 6.23946
rhand -9.32953 15.4984
rfingers 7.12502
rthumb 16.6292 -13.8092
lclavicle -5.56597e-015 -1.59028e-015
lhumerus -17.8056 -3.21082 77.6796
lradius 47.9964
lwrist -11.3939
lhand -41.3198 -11.6002
lfingers 7.12502
lthumb -14.2398 17.8917
rfemur 6.75992 3.3711 17.7811
rtibia 34.8207
rfoot -20.2498 9.01868
rtoes -36.8164
lfemur -30.622 6.7832 -9.83205
ltibia 38.0298
lfoot -1.82172 -10.3232
ltoes -13.0918
111
root -7.51828 18.5706 -0.81425 398.605 95.3598 398.93
lowerback 3.62679 -0.0754226 -2.87778
upperback 15.2111 1.12223 -0.254749
thorax 14.629 0.612154 1.52032
lowerneck 9.79021 -9.20193 -4.20854
upperneck -5.24843 -11.8208 14.9262
head -1.98004 -6.4239 5.63337
rclavicle 1.66979e-014 7.95139e-016
rhumerus -26.08 -21.5618 -81.8661
rradius 38.3789
rwrist 6.2345
rhand -9.41151 15.5654
rfingers 7.12502
rthumb 16.5503 -13.7488
lclavicle 1.66979e-014 7.95139e-016
lhumerus -17.6259 -3.22075 77.5054
lradius 48.1818
lwrist -11.2754
lhand -41.2901 -11.4143
lfingers 7.12502
lthumb -14.2112 18.0796
rfemur 6.55592 3.47591 17.6705
rtibia 35.659
rfoot -19.3431 9.01538
rtoes -37.2374
lfemur -30.3434 6.85049 -9.94659
ltibia 38.2636
lfoot -2.08694 -10.5297
ltoes -12.3713
112
root -7.42441 18.5814 -0.862301 398.323 95.385 398.741
lowerback 3.7342 -0.0583831 -3.29676
upperback 15.2105 1.17232 -0.324542
thorax 14.5622 0.591924 1.67758
lowerneck 9.78356 -9.46404 -4.03749
upperneck -5.12786 -12.1458 15.1997
head -1.90471 -6.59474 5.68696
rclavicle 4.37326e-015 4.77083e-015
rhumerus -26.2582 -21.6054 -81.9204
rradius 38.3495
rwrist 6.27223
rhand -9.5051 15.644
rfingers 7.12502
rthumb 16.4602 -13.6777
lclavicle 4.37326e-015 4.77083e-015
lhumerus -17.476 -3.32665 77.2827
lradius 48.4193
lwrist -11.1169
lhand -41.3011 -11.1928
lfingers 7.12502
lthumb -14.2217 18.3003
rfemur 6.3334 3.53276 17.545
rtibia 36.5627
rfoot -18.2837 9.07491
rtoes -37.2121
lfemur -30.0188 6.86961 -10.0477
ltibia 38.491
lfoot -2.33272 -10.6899
ltoes -11.3367
113
root -7.32992 18.5928 -0.910574 397.944 95.389 398.441
lowerback 3.81803 -0.0225516 -3.70876
upperback 15.2059 1.24988 -0.418398
thorax 14.5046 0.587987 1.80684
lowerneck 9.79632 -9.73548 -3.81791
upperneck -5.02471 -12.4736 15.4965
head -1.83882 -6.76923 5.74171
rclavicle 1.15295e-014 -1.98785e-014
rhumerus -26.4864 -21.7065 -81.9833
rradius 38.3876
rwrist 6.35147
rhand -9.56598 15.6992
rfingers 7.12502
rthumb 16.4016 -13.6273
lclavicle 1.15295e-014 -1.98785e-014
lhumerus -17.3203 -3.48876 77.0256
lradius 48.6743
lwrist -10.9212
lhand -41.2937 -11.0259
lfingers 7.12502
lthumb -14.2146 18.4677
rfemur 6.05472 3.59257 17.3916
rtibia 37.5277
rfoot -17.0985 9.10795
rtoes -36.9735
lfemur -29.6933 6.91506 -10.1844
ltibia 38.6964
lfoot -2.56447 -10.8702
ltoes -10.3475
114
root -7.23512 18.6027 -0.959215 397.859 95.4269 398.447
lowerback 3.87627 -0.00938854 -4.08813
upperback 15.2199 1.29594 -0.49363
thorax 14.4885 0.57099 1.93679
lowerneck 9.76203 -9.9955 -3.5934
upperneck -4.87768 -12.7945 15.7397
head -1.75653 -6.93475 5.77435
rclavicle 7.95139e-016 -5.56597e-015
rhumerus -26.6703 -21.7049 -82.0564
rradius 38.415
rwrist 6.37511
rhand -9.60226 15.7937
rfingers 7.12502
rthumb 16.3666 -13.5358
lclavicle 7.95139e-016 -5.56597e-015
lhumerus -17.1448 -3.57323 76.7783
lradius 48.9581
lwrist -10.7172
lhand -41.2966 -10.8685
lfingers 7.12502
lthumb -14.2174 18.6249
rfemur 5.73466 3.613 17.2752
rtibia 38.5661
rfoot -15.796 9.14212
rtoes -36.5772
lfemur -29.352 6.92355 -10.2558
ltibia 38.9051
lfoot -2.74631 -11.0303
ltoes -9.09327
115
root -7.13983 18.6132 -1.00674 397.76 95.4315 398.449
lowerback 3.92332 0.00694173 -4.47934
upperback 15.239 1.34821 -0.573068
thorax 14.4863 0.555701 2.06934
lowerneck 9.81161 -10.2303 -3.45923
upperneck -4.81387 -13.0812 16.0539
head -1.70502 -7.0902 5.84995
rclavicle 1.55052e-014 1.19271e-014
rhumerus -26.8643 -21.6808 -82.1542
rradius 38.5048
rwrist 6.3187
rhand -9.61762 15.8177
rfingers 7.12502
rthumb 16.3518 -13.5129
lclavicle 1.55052e-014 1.19271e-014
lhumerus -17.0081 -3.69442 76.5349
lradius 49.3078
lwrist -10.4619
lhand -41.3175 -10.7173
lfingers 7.12502
lthumb -14.2376 18.7747
rfemur 5.36488 3.63018 17.1328
rtibia 39.6758
rfoot -14.3599 9.11761
rtoes -36.0221
lfemur -28.991 6.97018 -10.3534
ltibia 39.1031
lfoot -2.96435 -11.2145
ltoes -8.0167
116
root -7.04529 18.6219 -1.05564 397.628 95.4375 398.43
lowerback 3.98418 0.0022189 -4.85166
upperback 15.2552 1.36777 -0.640862
thorax 14.474 0.526071 2.20113
lowerneck 9.8404 -10.4429 -3.43054
upperneck -4.69283 -13.361 16.3571
head -1.62676 -7.23717 5.93344
rclavicle -7.95139e-016 -1.27222e-014
rhumerus -27.052 -21.576 -82.2219
rradius 38.5988
rwrist 6.34186
rhand -9.65372 15.8133
rfingers 7.12502
rthumb 16.3171 -13.5202
lclavicle -7.95139e-016 -1.27222e-014
lhumerus -16.8868 -3.73776 76.3077
lradius 49.6555
lwrist -10.2257
lhand -41.3675 -10.601
lfingers 7.12502
lthumb -14.2858 18.8876
rfemur 4.93467 3.61093 16.9667
rtibia 40.8865
rfoot -12.7211 9.10107
rtoes -34.9878
lfemur -28.6062 7.00005 -10.4504
ltibia 39.2806
lfoot -3.17318 -11.3845
ltoes -6.89475
117
root -6.95044 18.6311 -1.10368 398.18 95.3971 399.098
lowerback 4.02579 0.00583495 -5.18324
upperback 15.2723 1.39639 -0.706045
thorax 14.4742 0.504947 2.31418
lowerneck 9.90971 -10.6285 -3.56382
upperneck -4.58762 -13.6216 16.7507
head -1.54327 -7.37748 6.07033
rclavicle -2.38542e-015 -1.74931e-014
rhumerus -27.2393 -21.3401 -82.3198
rradius 38.7663
rwrist 6.19481
rhand -9.68577 15.7585
rfingers 7.12502
rthumb 16.2862 -13.5776
lclavicle -2.38542e-015 -1.74931e-014
lhumerus -16.7987 -3.772 76.069
lradius 50.0662
lwrist -9.99465
lhand -41.3633 -10.4264
lfingers 7.12502
lthumb -14.2817 19.0625
rfemur 4.40026 3.59957 16.8151
rtibia 42.2339
rfoot -10.9772 8.99007
rtoes -33.8028
lfemur -28.1933 7.06692 -10.5111
ltibia 39.4299
lfoot -3.36766 -11.5255
ltoes -5.65911
118
root -6.85642 18.6463 -1.15254 398.27 95.3402 399.312
lowerback 4.08265 0.0161172 -5.53963
upperback 15.2949 1.43604 -0.773488
thorax 14.472 0.486902 2.43909
lowerneck 9.95201 -10.8199 -3.70374
upperneck -4.46567 -13.8949 17.1457
head -1.44705 -7.52216 6.20533
rclavicle 7.95139e-016 9.54166e-015
rhumerus -27.3939 -21.163 -82.4029
rradius 38.914
rwrist 6.07769
rhand -9.68812 15.7215
rfingers 7.12502
rthumb 16.284 -13.6147
lclavicle 7.95139e-016 9.54166e-015
lhumerus -16.6765 -3.80489 75.8353
lradius 50.4741
lwrist -9.75335
lhand -41.3221 -10.3576
lfingers 7.12502
lthumb -14.242 19.134
rfemur 3.77131 3.52392 16.601
rtibia 43.7406
rfoot -9.21418 8.75131
rtoes -32.721
lfemur -27.7377 7.08651 -10.6195
ltibia 39.5432
lfoot -3.61368 -11.6294
ltoes -4.79686
119
root -6.76383 18.6586 -1.19993 398.631 95.29 399.777
lowerback 4.1219 0.0180159 -5.87275
upperback 15.3069 1.46134 -0.839047
thorax 14.4685 0.464023 2.55198
lowerneck 9.99338 -10.9962 -3.84485
upperneck -4.32413 -14.1542 17.4889
head -1.34864 -7.65715 6.32351
rclavicle 6.36111e-015 2.38542e-015
rhumerus -27.5199 -20.9459 -82.5071
rradius 39.0382
rwrist 5.98306
rhand -9.71869 15.6915
rfingers 7.12502
rthumb 16.2545 -13.6471
lclavicle 6.36111e-015 2.38542e-015
lhumerus -16.5951 -3.90931 75.5665
lradius 50.9286
lwrist -9.41874
lhand -41.3369 -10.2387
lfingers 7.12502
lthumb -14.2563 19.252
rfemur 2.9978 3.37163 16.4069
rtibia 45.4124
rfoot -7.512 8.3983
rtoes -32.2914
lfemur -27.3157 7.14347 -10.7097
ltibia 39.6378
lfoot -3.89258 -11.7689
ltoes -4.21889
120
root -6.67633 18.6682 -1.24577 399.186 95.2197 400.477
lowerback 4.22022 0.0340053 -6.19588
upperback 15.3337 1.50687 -0.922827
thorax 14.4456 0.455753 2.63975
lowerneck 10.0434 -11.1675 -3.95622
upperneck -4.20132 -14.3993 17.8702
head -1.25704 -7.78746 6.44977
rclavicle -4.77083e-015 2.38542e-015
rhumerus -27.6482 -20.7184 -82.6611
rradius 39.2185
rwrist 5.87858
rhand -9.75359 15.6147
rfingers 7.12502
rthumb 16.2209 -13.7267
lclavicle -4.77083e-015 2.38542e-015
lhumerus -16.4965 -3.97445 75.261
lradius 51.4161
lwrist -9.16318
lhand -41.2959 -10.1598
lfingers 7.12502
lthumb -14.2168 19.3337
rfemur 2.15865 3.19813 16.215
rtibia 47.2176
rfoot -5.76659 8.02401
rtoes -31.8897
lfemur -26.8459 7.19134 -10.7696
ltibia 39.712
lfoot -4.09676 -11.8984
ltoes -3.24543
121
root -6.59115 18.6776 -1.29064 399.618 95.1674 401.044
lowerback 4.33846 0.0435316 -6.53103
upperback 15.3494 1.53784 -0.988485
thorax 14.3975 0.437921 2.75234
lowerneck 10.0911 -11.3253 -4.09162
upperneck -4.06328 -14.6332 18.2409
head -1.15963 -7.91052 6.57511
rclavicle 1.35174e-014 4.77083e-015
rhumerus -27.7435 -20.4284 -82.8025
rradius 39.3508
rwrist 5.73596
rhand -9.79998 15.5738
rfingers 7.12502
rthumb 16.1763 -13.7713
lclavicle 1.35174e-014 4.77083e-015
lhumerus -16.4105 -3.98712 74.9937
lradius 51.9156
lwrist -8.99049
lhand -41.2659 -10.0399
lfingers 7.12502
lthumb -14.1878 19.4556
rfemur 1.21088 2.97412 16.0222
rtibia 49.125
rfoot -3.98773 7.5469
rtoes -31.3561
lfemur -26.4071 7.24206 -10.8391
ltibia 39.7809
lfoot -4.32917 -12.0233
ltoes -2.82773
122
root -6.50841 18.6863 -1.33472 399.981 95.1247 401.529
lowerback 4.43713 0.0334726 -6.85863
upperback 15.3791 1.54574 -1.05958
thorax 14.3827 0.40964 2.85346
lowerneck 10.1009 -11.4787 -4.23112
upperneck -3.92253 -14.8668 18.5747
head -1.05649 -8.03049 6.68646
rclavicle 2.46493e-014 1.03368e-014
rhumerus -27.7906 -20.074 -82.9851
rradius 39.5019
rwrist 5.53182
rhand -9.85454 15.507
rfingers 7.12502
rthumb 16.1237 -13.8423
lclavicle 2.46493e-014 1.03368e-014
lhumerus -16.2966 -3.95412 74.7146
lradius 52.4234
lwrist -8.77499
lhand -41.2477 -10.0572
lfingers 7.12502
lthumb -14.1703 19.4395
rfemur 0.173452 2.71632 15.8253
rtibia 51.0916
rfoot -2.17566 7.0041
rtoes -30.8209
lfemur -25.9807 7.24864 -10.8995
ltibia 39.842
lfoot -4.53949 -12.1006
ltoes -2.04466
123
root -6.42781 18.6966 -1.3777 400.442 95.0711 402.122
lowerback 4.5691 0.0324907 -7.1752
upperback 15.4022 1.56212 -1.13769
thorax 14.3384 0.388761 2.94042
lowerneck 10.1114 -11.62 -4.3645
upperneck -3.76801 -15.0847 18.9281
head -0.949275 -8.14222 6.802
rclavicle 8.74653e-015 -1.27222e-014
rhumerus -27.8498 -19.8199 -83.1637
rradius 39.6119
rwrist 5.47442
rhand -9.90947 15.5558
rfingers 7.12502
rthumb 16.0708 -13.7978
lclavicle 8.74653e-015 -1.27222e-014
lhumerus -16.2085 -3.9672 74.4184
lradius 52.9697
lwrist -8.56517
lhand -41.276 -10.067
lfingers 7.12502
lthumb -14.1976 19.4278
rfemur -0.918685 2.42301 15.6195
rtibia 53.1013
rfoot -0.330538 6.38716
rtoes -30.1512
lfemur -25.5391 7.27451 -10.9652
ltibia 39.8849
lfoot -4.77694 -12.1999
ltoes -1.58974
124
root -6.35076 18.7046 -1.42038 400.556 95.0191 402.366
lowerback 4.71512 0.0368066 -7.46809
upperback 15.4356 1.58919 -1.24384
thorax 14.298 0.379537 2.98377
lowerneck 10.0612 -11.7826 -4.43072
upperneck -3.59918 -15.3277 19.2516
head -0.831365 -8.2625 6.89265
rclavicle -5.56597e-015 1.59028e-014
rhumerus -27.8852 -19.571 -83.3928
rradius 39.7601
rwrist 5.39719
rhand -10.0396 15.5921
rfingers 7.12502
rthumb 15.9456 -13.7715
lclavicle -5.56597e-015 1.59028e-014
lhumerus -16.0503 -4.01201 74.1002
lradius 53.4909
lwrist -8.37842
lhand -41.3319 -10.126
lfingers 7.12502
lthumb -14.2514 19.365
rfemur -2.06603 2.09393 15.3738
rtibia 55.1433
rfoot 1.57467 5.66511
rtoes -28.6664
lfemur -25.1132 7.27874 -11.0582
ltibia 39.9292
lfoot -5.00845 -12.2689
ltoes -1.09659
